<svg xmlns="http://www.w3.org/2000/svg" width="21.957" height="14.386" viewBox="0 0 21.957 14.386">
  <g id="canada" transform="translate(0 -0.012)">
    <g id="Group">
      <path id="Path" d="M21.579,14.386H.379A.379.379,0,0,1,0,14.007V.379A.379.379,0,0,1,.379,0h21.2a.379.379,0,0,1,.379.379V14.007A.379.379,0,0,1,21.579,14.386Z" transform="translate(0 0.012)" fill="#f5f5f5"/>
      <rect id="Rectangle" width="12.114" height="14.386" transform="translate(4.921 0.012)" fill="#f5f5f5"/>
    </g>
    <g id="Group-2" data-name="Group">
      <path id="Path-2" data-name="Path" d="M.379,0A.379.379,0,0,0,0,.379V14.007a.379.379,0,0,0,.379.379H4.921V0Z" transform="translate(0 0.012)" fill="#ff4b55"/>
      <path id="Path-3" data-name="Path" d="M4.543,0H0V14.386H4.543a.379.379,0,0,0,.379-.379V.379A.379.379,0,0,0,4.543,0Z" transform="translate(17.036 0.012)" fill="#ff4b55"/>
      <path id="Path-4" data-name="Path" d="M6.84,6.112,9.087,4.828,8.571,4.57a.379.379,0,0,1-.206-.389l.168-1.257L7.582,3.2a.379.379,0,0,1-.475-.282l-.091-.412L6.122,3.552A.187.187,0,0,1,5.795,3.4l.381-2.217-.584.16a.378.378,0,0,1-.434-.187L4.544,0V0h0V0L3.928,1.154a.379.379,0,0,1-.434.187l-.584-.16L3.292,3.4a.188.188,0,0,1-.327.154L2.071,2.507l-.091.412A.379.379,0,0,1,1.5,3.2L.554,2.924.721,4.182a.379.379,0,0,1-.206.389L0,4.828,2.246,6.112a.547.547,0,0,1,.241.666L2.3,7.291,4.22,7.127a.179.179,0,0,1,.194.184l-.061,2.06h.379L4.671,7.31a.179.179,0,0,1,.194-.184l1.926.164L6.6,6.778A.547.547,0,0,1,6.84,6.112Z" transform="translate(6.436 2.755)" fill="#ff4b55"/>
    </g>
  </g>
</svg>
