<svg xmlns="http://www.w3.org/2000/svg" width="19.379" height="18.41" viewBox="0 0 19.379 18.41">
  <g id="online-chat" transform="translate(0.14 -0.162)">
    <path id="Path_74" data-name="Path 74" d="M0,7.222H11.03V2a2,2,0,0,0-2-2H2A2,2,0,0,0,0,2Z" transform="translate(0.41 10.8)" fill="none" stroke="#000" stroke-miterlimit="10" stroke-width="1.1"/>
    <path id="Path_78" data-name="Path 78" d="M0,10.064H5.45a1,1,0,0,0,1-1V5.7A3.278,3.278,0,0,0,3.621,2.451L1.656,2.179a1,1,0,0,1-.863-.991V0" transform="translate(12.239 7.957)" fill="none" stroke="#000" stroke-miterlimit="10" stroke-width="1.1"/>
    <path id="Path_79" data-name="Path 79" d="M3.518,0V1.239a1,1,0,0,1-.734.964L0,2.972" transform="translate(5.871 7.828)" fill="none" stroke="#000" stroke-miterlimit="10" stroke-width="1.1"/>
    <path id="Path_80" data-name="Path 80" d="M0,.218V2.7A2.562,2.562,0,0,0,2.562,5.262h0A2.562,2.562,0,0,0,5.123,2.7V0" transform="translate(8.605 3.384)" fill="none" stroke="#000" stroke-miterlimit="10" stroke-width="1.1"/>
    <path id="Path_81" data-name="Path 81" d="M0,0V2.04a2,2,0,0,0,2,2H3.225a2,2,0,0,0,2-2V2a2,2,0,0,0-2-2Z" transform="translate(8.538 0.712)" fill="none" stroke="#000" stroke-miterlimit="10" stroke-width="1.1"/>
    <path id="Path_82" data-name="Path 82" d="M2.277,6.129H1a1,1,0,0,1-1-1V1A1,1,0,0,1,1,0H5.113a1,1,0,0,1,1,1V4.974a1,1,0,0,1-1,1H3.837V7.2Z" transform="translate(0.41 2.36)" fill="none" stroke="#000" stroke-miterlimit="10" stroke-width="1.1"/>
    <circle id="Oval" cx="0.819" cy="0.819" r="0.819" transform="translate(5.064 13.838)" fill="none" stroke="#000" stroke-miterlimit="10" stroke-width="1.1"/>
    <path id="Path_83" data-name="Path 83" d="M.41,2.671V0" transform="translate(16.471 15.35)" fill="none" stroke="#000" stroke-linecap="round" stroke-miterlimit="10" stroke-width="1.1"/>
  </g>
</svg>
