<svg id="usa" xmlns="http://www.w3.org/2000/svg" width="20.113" height="12.71" viewBox="0 0 20.113 12.71">
  <path id="Path" d="M20.113,0V.589a1.53,1.53,0,0,1-1.53,1.53H1.53A1.53,1.53,0,0,1,0,.589V0Z" transform="translate(0 10.591)" fill="#e8e7e6"/>
  <path id="Path-2" data-name="Path" d="M20.113,0V2.118H0V0Z" transform="translate(0 6.355)" fill="#e8e7e6"/>
  <path id="Path-3" data-name="Path" d="M0,0H20.113V2.118H0Z" transform="translate(0 2.118)" fill="#e8e7e6"/>
  <path id="Path-4" data-name="Path" d="M0,0H20.113V2.118H0Z" transform="translate(0 8.473)" fill="#ff4b55"/>
  <path id="Path-5" data-name="Path" d="M20.113,0V2.118H0V0Z" transform="translate(0 4.236)" fill="#ff4b55"/>
  <path id="Path-6" data-name="Path" d="M20.113,1.53v.589H0V1.53A1.529,1.529,0,0,1,1.53,0H18.582A1.53,1.53,0,0,1,20.113,1.53Z" fill="#ff4b55"/>
  <path id="Path-7" data-name="Path" d="M9.338,1.429V4.768A1.586,1.586,0,0,1,7.752,6.355H0V1.53A1.53,1.53,0,0,1,1.53,0H7.909A1.429,1.429,0,0,1,9.338,1.429Z" fill="#45ace1"/>
  <g id="Group" transform="translate(1.414 1.257)">
    <path id="Path-8" data-name="Path" d="M.307.615A.31.31,0,0,1,.023.425.311.311,0,0,1,.112.069.311.311,0,0,1,.484.055.31.31,0,0,1,.6.389.31.31,0,0,1,.307.615Z" transform="translate(0.023 0.013)" fill="#e8e7e6"/>
    <path id="Path-9" data-name="Path" d="M.3.614A.31.31,0,0,1,.11.068a.31.31,0,0,1,.5.276A.311.311,0,0,1,.3.614Z" transform="translate(2.95 0.014)" fill="#e8e7e6"/>
    <path id="Path-10" data-name="Path" d="M.3.614A.31.31,0,0,1,.1.072a.31.31,0,0,1,.5.279A.31.31,0,0,1,.3.614Z" transform="translate(5.875 0.014)" fill="#e8e7e6"/>
    <path id="Path-11" data-name="Path" d="M.307.614a.31.31,0,0,1-.3-.226A.31.31,0,0,1,.132.054a.31.31,0,0,1,.476.32A.31.31,0,0,1,.307.614Z" transform="translate(1.485 0.013)" fill="#e8e7e6"/>
    <path id="Path-12" data-name="Path" d="M.307.615A.311.311,0,0,1,.023.425.311.311,0,0,1,.112.069.311.311,0,0,1,.478.051.31.31,0,0,1,.606.382.311.311,0,0,1,.307.615Z" transform="translate(4.41 0.013)" fill="#e8e7e6"/>
    <path id="Path-13" data-name="Path" d="M.307.613A.311.311,0,0,1,.02.416.311.311,0,0,1,.112.068a.31.31,0,0,1,.5.3A.311.311,0,0,1,.307.613Z" transform="translate(0.754 1.615)" fill="#e8e7e6"/>
    <path id="Path-14" data-name="Path" d="M.307.614A.311.311,0,0,1,.02.417a.31.31,0,0,1,.1-.352.31.31,0,0,1,.493.3A.311.311,0,0,1,.307.614Z" transform="translate(3.679 1.615)" fill="#e8e7e6"/>
    <path id="Path-15" data-name="Path" d="M.307.615a.31.31,0,0,1-.29-.2.31.31,0,0,1,.1-.345A.308.308,0,0,1,.6.389.312.312,0,0,1,.307.615Z" transform="translate(2.217 1.613)" fill="#e8e7e6"/>
    <path id="Path-16" data-name="Path" d="M.3.614A.31.31,0,0,1,.1.072a.31.31,0,0,1,.5.294A.311.311,0,0,1,.3.614Z" transform="translate(5.144 1.614)" fill="#e8e7e6"/>
    <path id="Path-17" data-name="Path" d="M.3.614A.31.31,0,0,1,.119.061a.31.31,0,0,1,.488.3A.311.311,0,0,1,.3.614Z" transform="translate(0.026 3.215)" fill="#e8e7e6"/>
    <path id="Path-18" data-name="Path" d="M.3.615a.31.31,0,0,1-.2-.542A.311.311,0,0,1,.481.054.311.311,0,0,1,.6.395.311.311,0,0,1,.3.615Z" transform="translate(2.95 3.214)" fill="#e8e7e6"/>
    <path id="Path-19" data-name="Path" d="M.305.615A.31.31,0,0,1,.1.077.311.311,0,0,1,.476.051.311.311,0,0,1,.606.37.311.311,0,0,1,.305.615Z" transform="translate(5.874 3.214)" fill="#e8e7e6"/>
    <path id="Path-20" data-name="Path" d="M.3.614a.31.31,0,0,1-.2-.543.31.31,0,0,1,.5.279A.311.311,0,0,1,.3.614Z" transform="translate(1.488 3.215)" fill="#e8e7e6"/>
    <path id="Path-21" data-name="Path" d="M.306.615A.31.31,0,0,1,.092.085.311.311,0,0,1,.464.043.312.312,0,0,1,.607.37.311.311,0,0,1,.306.615Z" transform="translate(4.412 3.214)" fill="#e8e7e6"/>
  </g>
</svg>
