<svg xmlns="http://www.w3.org/2000/svg" width="17.502" height="21.045" viewBox="0 0 17.502 21.045">
  <g id="Group_8" data-name="Group 8" transform="translate(-0.152 -0.179)">
    <path id="Path_45" data-name="Path 45" d="M.448,3.584A1,1,0,0,0,.525,4.819l7.036,7.868a1,1,0,0,0,1.491,0L16.11,4.8a1,1,0,0,0,.1-1.2L14.229.465A1,1,0,0,0,13.384,0H3.452A1,1,0,0,0,2.63.431Z" transform="translate(0.65 7.604)" fill="none" stroke="#000" stroke-miterlimit="10" stroke-width="1.2"/>
    <path id="Path_46" data-name="Path 46" d="M0,.5H15.864" transform="translate(1 11.327)" fill="none" stroke="#000" stroke-miterlimit="10" stroke-width="1.2"/>
    <path id="Path_47" data-name="Path 47" d="M0,0,2.643,3.875l2.395,8.594h.569L8.122,3.875,10.792,0" transform="translate(3.609 7.848)" fill="none" stroke="#000" stroke-miterlimit="10" stroke-width="1.2"/>
    <path id="Path_48" data-name="Path 48" d="M0,3.619,2.5,0h.442L5.359,3.619" transform="translate(6.315 7.925)" fill="none" stroke="#000" stroke-miterlimit="10" stroke-width="1.2"/>
    <path id="Path_49" data-name="Path 49" d="M.5,0V3.426" transform="translate(8.512 0.779)" fill="none" stroke="#000" stroke-linecap="round" stroke-miterlimit="10" stroke-width="1.2"/>
    <path id="Path_50" data-name="Path 50" d="M0,2.083,1.9,0" transform="translate(14.836 3.902)" fill="none" stroke="#000" stroke-linecap="round" stroke-miterlimit="10" stroke-width="1.2"/>
    <path id="Path_50_Copy" data-name="Path 50 Copy" d="M0,2.083-1.9,0" transform="translate(2.898 3.902)" fill="none" stroke="#000" stroke-linecap="round" stroke-miterlimit="10" stroke-width="1.2"/>
  </g>
</svg>
