<svg xmlns="http://www.w3.org/2000/svg" width="15.812" height="20.905" viewBox="0 0 15.812 20.905">
  <g id="Group_3" data-name="Group 3" transform="translate(0.083 -0.001)">
    <path id="Path_13" data-name="Path 13" d="M5.043,0V1.272a.5.5,0,0,1-.5.5H2.951a2,2,0,0,0-1.575.767L.662,3.45l-.5,1.442A1,1,0,0,0,.9,6.2L7.422,7.625l6.416-1.455A1,1,0,0,0,14.6,5l-.25-1.271-1-1.223A2,2,0,0,0,11.8,1.772H9.846a.5.5,0,0,1-.5-.5V0" transform="translate(0.413 12.666)" fill="none" stroke="#000" stroke-miterlimit="10" stroke-width="1.2"/>
    <path id="Path_14" data-name="Path 14" d="M0,0A30.92,30.92,0,0,1,4.04.871,15.41,15.41,0,0,1,6.927,2.489,16.434,16.434,0,0,1,9.939.871,27.729,27.729,0,0,1,13.916.153" transform="translate(0.85 16.433)" fill="none" stroke="#000" stroke-miterlimit="10" stroke-width="1.2"/>
    <path id="Path_23" data-name="Path 23" d="M4.035.005h0A4.7,4.7,0,0,0,1.887,6.2l2.148,4.581L6.007,6.776A5.223,5.223,0,0,0,4.035.005Z" transform="translate(3.743 2.759)" fill="none" stroke="#000" stroke-miterlimit="10" stroke-width="1.2"/>
    <path id="Path_24" data-name="Path 24" d="M0,2.266A13.3,13.3,0,0,0,1.2,1.211,10.366,10.366,0,0,0,2.037,0,13.79,13.79,0,0,0,4.551,1.615a18.766,18.766,0,0,0,3.2.806" transform="translate(3.964 5.989)" fill="none" stroke="#000" stroke-miterlimit="10" stroke-width="1.2"/>
    <path id="Path_25" data-name="Path 25" d="M4.12,0S.929,2.675.31,6.25a20.338,20.338,0,0,0,0,6.683" transform="translate(0.547 4.045)" fill="none" stroke="#000" stroke-miterlimit="10" stroke-width="1.2"/>
    <path id="Path_25_Copy" data-name="Path 25 Copy" d="M-4.12,0S-.929,2.675-.31,6.25a20.338,20.338,0,0,1,0,6.683" transform="translate(15.128 4.045)" fill="none" stroke="#000" stroke-miterlimit="10" stroke-width="1.2"/>
    <path id="Path_26" data-name="Path 26" d="M.538,3.189A1.8,1.8,0,0,1,.327,1.024C1.075-.122,2.576,0,3.917,0s2.637.109,3.3,1.186a2.408,2.408,0,0,1-.229,2.376" transform="translate(3.86 0.599)" fill="none" stroke="#000" stroke-miterlimit="10" stroke-width="1.2"/>
  </g>
</svg>
