<svg xmlns="http://www.w3.org/2000/svg" width="20.587" height="18.063" viewBox="0 0 20.587 18.063">
  <g id="Group_2" data-name="Group 2" transform="translate(0.196 0.56)">
    <path id="Path_8" data-name="Path 8" d="M12.148,4.915a1,1,0,0,1,.337.748v7.031a1,1,0,0,1-1,1H1a1,1,0,0,1-1-1V5.663a1,1,0,0,1,.337-.748L5.579.267a1,1,0,0,1,1.327,0Z" transform="translate(3.936 3.21)" fill="none" stroke="#000" stroke-miterlimit="10" stroke-width="1.2"/>
    <path id="Path_12" data-name="Path 12" d="M3.908,6.508V1a1,1,0,0,0-1-1H1A1,1,0,0,0,0,1V6.508" transform="translate(8.224 10.656)" fill="none" stroke="#000" stroke-miterlimit="10" stroke-width="1.2"/>
    <path id="Path" d="M3.387,8.643H.321a.3.3,0,0,1-.2-.522L8.425.553a2,2,0,0,1,2.706.011l8.156,7.558a.3.3,0,0,1-.2.52H15.9" transform="translate(0.396 0.132)" fill="none" stroke="#000" stroke-linecap="round" stroke-miterlimit="10" stroke-width="1.2"/>
  </g>
</svg>
