<svg xmlns="http://www.w3.org/2000/svg" width="17.718" height="16.446" viewBox="0 0 17.718 16.446">
  <g id="information_1_" data-name="information (1)" transform="translate(0.2 0.173)">
    <path id="Shape" d="M.355,2.649A1.374,1.374,0,0,1,.009,1.568,2.007,2.007,0,0,1,2.061,0,1.9,1.9,0,0,1,3.5.593a1.36,1.36,0,0,1,.347,1.071A1.988,1.988,0,0,1,1.778,3.232,1.888,1.888,0,0,1,.355,2.649Z" transform="translate(7.103 2.43)" stroke="#000" stroke-miterlimit="10" stroke-width="0.4"/>
    <path id="Shape-2" data-name="Shape" d="M.424,6.889A2.211,2.211,0,0,1,.047,5.063a.007.007,0,0,0,0,0C.09,4.83.407,3.218.428,3.116c.228-1.13-.012-1.3-.113-1.373a.656.656,0,0,1-.22-.227A.513.513,0,0,1,.113,1,2.424,2.424,0,0,1,2.242.006,1.967,1.967,0,0,1,3.688.747a2.242,2.242,0,0,1,.329,1.834s0,0,0,0c-.14.671-.27,1.273-.34,1.6-.031.142-.05.233-.055.257-.2,1.133.047,1.3.15,1.365A.666.666,0,0,1,4,6.026a.512.512,0,0,1-.005.517A2.417,2.417,0,0,1,2,7.593h-.03A2.053,2.053,0,0,1,.424,6.889Z" transform="translate(6.435 6.084)" stroke="#000" stroke-miterlimit="10" stroke-width="0.4"/>
    <path id="Shape-3" data-name="Shape" d="M15.8,16.019,12.781,14.89a9.317,9.317,0,0,1-4.122.953,9.026,9.026,0,0,1-6.108-2.307A7.544,7.544,0,0,1,0,7.922,7.544,7.544,0,0,1,2.551,2.307,9.026,9.026,0,0,1,8.659,0a9.03,9.03,0,0,1,6.109,2.307,7.547,7.547,0,0,1,2.55,5.615,7.512,7.512,0,0,1-1.772,4.8l.8,2.793a.415.415,0,0,1-.545.5Z" transform="translate(0 0.027)" fill="none" stroke="#000" stroke-miterlimit="10" stroke-width="0.4"/>
  </g>
</svg>
