<svg xmlns="http://www.w3.org/2000/svg" width="19" height="22.318" viewBox="0 0 19 22.318">
  <g id="Group_2" data-name="Group 2" transform="translate(-0.75 0.78)">
    <g id="Rectangle" transform="translate(0.75 8.548)" fill="none" stroke-miterlimit="10">
      <path d="M9.5,0A9.5,9.5,0,0,1,19,9.5v.489a3,3,0,0,1-3,3H3a3,3,0,0,1-3-3V9.5A9.5,9.5,0,0,1,9.5,0Z" stroke="none"/>
      <path d="M 9.5 1.769998550415039 C 5.23766040802002 1.769998550415039 1.770000457763672 5.237658500671387 1.770000457763672 9.499998092651367 L 1.770000457763672 9.988637924194336 C 1.770000457763672 10.6668586730957 2.321779251098633 11.21863842010498 3 11.21863842010498 L 16 11.21863842010498 C 16.67822074890137 11.21863842010498 17.22999954223633 10.6668586730957 17.22999954223633 9.988637924194336 L 17.22999954223633 9.499998092651367 C 17.22999954223633 5.237658500671387 13.7623405456543 1.769998550415039 9.5 1.769998550415039 M 9.5 -1.9073486328125e-06 C 14.74670028686523 -1.9073486328125e-06 19 4.253298759460449 19 9.499998092651367 L 19 9.988637924194336 C 19 11.64548873901367 17.65685081481934 12.98863887786865 16 12.98863887786865 L 3 12.98863887786865 C 1.343149185180664 12.98863887786865 0 11.64548873901367 0 9.988637924194336 L 0 9.499998092651367 C 0 4.253298759460449 4.253290176391602 -1.9073486328125e-06 9.5 -1.9073486328125e-06 Z" stroke="none" fill="#000"/>
    </g>
    <circle id="Oval" cx="5.5" cy="5.5" r="5.5" transform="translate(4.75 0.105)" fill="#fff" stroke="#000" stroke-miterlimit="10" stroke-width="1.77"/>
  </g>
</svg>
