<svg xmlns="http://www.w3.org/2000/svg" width="17.219" height="19.454" viewBox="0 0 17.219 19.454">
  <g id="mail" transform="translate(0.5 0.5)">
    <path id="Shape" d="M1.748,6.973A3.784,3.784,0,1,1,7.569,3.785a1.621,1.621,0,0,1-2.7,1.208,1.621,1.621,0,1,1,.541-1.208v.008a.541.541,0,0,0,1.082-.008A2.7,2.7,0,1,0,2.331,6.062,2.8,2.8,0,0,0,5.06,6.2a.54.54,0,0,1,.452.982,4.141,4.141,0,0,1-1.733.391A3.742,3.742,0,0,1,1.748,6.973Z" transform="translate(4.325 2.163)"/>
    <path id="Shape-2" data-name="Shape" d="M1.622,18.454A1.624,1.624,0,0,1,0,16.832V7.1a.545.545,0,0,1,.153-.375l.005-.005,2-2V.541A.541.541,0,0,1,2.7,0H13.516a.541.541,0,0,1,.54.541V4.714l2,2a.539.539,0,0,1,.158.381v9.733A1.623,1.623,0,0,1,14.6,18.454Z" fill="none" stroke="#000" stroke-width="1"/>
  </g>
</svg>
