<svg xmlns="http://www.w3.org/2000/svg" width="18.651" height="18.633" viewBox="0 0 18.651 18.633">
  <g id="phone-call" transform="translate(0.519 0.133)">
    <path id="Shape" d="M10.188,17.252a15.389,15.389,0,0,1-5.963-3.845A15.378,15.378,0,0,1,.381,7.445C-.266,5.4-.084,3.7.892,2.612.907,2.593,1.2,2.3,1.2,2.3a1.081,1.081,0,0,1,.273-1.064L2.39.316a1.081,1.081,0,0,1,1.527,0L7.445,3.843a1.081,1.081,0,0,1,0,1.527l-.917.917a1.076,1.076,0,0,1-.764.316,1.1,1.1,0,0,1-.3-.042l-.346.346h0c-.246.247.132,1.777,1.982,3.626s3.38,2.227,3.626,1.982h0l.346-.347a1.082,1.082,0,0,1,.274-1.063l.917-.917a1.081,1.081,0,0,1,1.527,0l3.526,3.527a1.08,1.08,0,0,1,0,1.526l-.917.918a1.074,1.074,0,0,1-.763.316,1.111,1.111,0,0,1-.3-.042l-.193.192a3.719,3.719,0,0,1-2.72,1.008A7.449,7.449,0,0,1,10.188,17.252Z" transform="translate(0 0.367)" fill="none" stroke="#000" stroke-width="1"/>
    <path id="Path" d="M4.384,1.592A5.4,5.4,0,0,0,.54,0a.54.54,0,1,0,0,1.08A4.328,4.328,0,0,1,3.621,2.356,4.328,4.328,0,0,1,4.9,5.436a.54.54,0,0,0,1.08,0A5.4,5.4,0,0,0,4.384,1.592Z" transform="translate(9.285 2.738)"/>
    <path id="Path-2" data-name="Path" d="M6.32,2.394A8.121,8.121,0,0,0,.54,0a.54.54,0,1,0,0,1.08A7.049,7.049,0,0,1,5.557,3.158,7.049,7.049,0,0,1,7.635,8.175a.54.54,0,0,0,1.08,0A8.121,8.121,0,0,0,6.32,2.394Z" transform="translate(9.285)"/>
    <path id="Path-3" data-name="Path" d="M2.447.79A2.644,2.644,0,0,0,.54,0h0a.54.54,0,1,0,0,1.08h0a1.566,1.566,0,0,1,1.144.474A1.586,1.586,0,0,1,2.158,2.7a.54.54,0,0,0,.54.54h0a.54.54,0,0,0,.54-.54A2.645,2.645,0,0,0,2.447.79Z" transform="translate(9.286 5.477)"/>
  </g>
</svg>
