<svg xmlns="http://www.w3.org/2000/svg" width="21.249" height="20.14" viewBox="0 0 21.249 20.14">
  <g id="prom-night" transform="translate(0.5 0.462)">
    <path id="Path" d="M2.649,1.027H2.218V.6A.6.6,0,1,0,1.027.6v.431H.6a.6.6,0,1,0,0,1.191h.431v.431a.6.6,0,1,0,1.191,0V2.218h.431a.6.6,0,1,0,0-1.191Z" transform="translate(13.594 15.57)"/>
    <path id="Path-2" data-name="Path" d="M.6,2.218h.431v.431a.6.6,0,1,0,1.191,0V2.218h.431a.6.6,0,1,0,0-1.191H2.218V.6A.6.6,0,1,0,1.027.6v.431H.6a.6.6,0,1,0,0,1.191Z" transform="translate(10.101 2.864)"/>
    <path id="Shape" d="M0,12.633a6.517,6.517,0,0,1,5.911-6.48V3.873H5.179A2.166,2.166,0,0,1,3.015,1.709V.6A.6.6,0,0,1,3.61,0H9.4a.6.6,0,0,1,.6.6V1.709A2.166,2.166,0,0,1,7.836,3.873H7.1V6.153a6.493,6.493,0,0,1,5.55,4.335,2.038,2.038,0,0,1,1.044.188V6.523a.6.6,0,0,1,.487-.585l5.361-.988a.6.6,0,0,1,.7.586v7.012a2.067,2.067,0,1,1-1.191-1.871V8.755l-4.171.751v3.042a2.069,2.069,0,0,1-2.181,2.065A6.508,6.508,0,0,1,0,12.633Z" transform="translate(0 0.038)" fill="none" stroke="#000" stroke-width="1"/>
  </g>
</svg>
