<svg xmlns="http://www.w3.org/2000/svg" width="20.26" height="25.185" viewBox="0 0 20.26 25.185">
  <g id="Group" transform="translate(0.689 0.195)">
    <path id="Path_2" data-name="Path 2" d="M0,2.141A2.141,2.141,0,0,1,2.141,0h14.2a2.141,2.141,0,0,1,2.141,2.141v9.92A4.282,4.282,0,0,1,14.2,16.343H4.282A4.282,4.282,0,0,1,0,12.061Z" transform="translate(0.198 7.76)" fill="none" stroke="#000" stroke-miterlimit="10" stroke-width="1.773"/>
    <path id="Path_3" data-name="Path 3" d="M0,9.8V4.282A4.282,4.282,0,0,1,4.282,0h.33A4.282,4.282,0,0,1,8.894,4.282V9.8" transform="translate(5.047 0.691)" fill="none" stroke="#000" stroke-linecap="round" stroke-miterlimit="10" stroke-width="1.773"/>
  </g>
</svg>
