<svg xmlns="http://www.w3.org/2000/svg" width="20.237" height="20.669" viewBox="0 0 20.237 20.669">
  <g id="Group_7" data-name="Group 7" transform="translate(0.174 0.655)">
    <g id="Group_6" data-name="Group 6" transform="translate(0 8.421)">
      <path id="Path_33" data-name="Path 33" d="M5.546.984a1,1,0,0,0-1.6.282L.038,9.448a1,1,0,0,0,1.339,1.33L9.56,6.8a1,1,0,0,0,.264-1.612Z" transform="translate(0.514 0.085)" fill="none" stroke="#000" stroke-miterlimit="10" stroke-width="1.2"/>
      <path id="Path_41" data-name="Path 41" d="M.021,0l1.01,4.828" transform="translate(2.828 4.747)" fill="none" stroke="#000" stroke-miterlimit="10" stroke-width="1.2"/>
      <path id="Path_41_Copy" data-name="Path 41 Copy" d="M0,0,1.441,7.462" transform="translate(5.499 1.001)" fill="none" stroke="#000" stroke-miterlimit="10" stroke-width="1.2"/>
    </g>
    <path id="Path_42" data-name="Path 42" d="M.984,6.935s-1.475-2.1-.738-3.55S2.652,1.768,3.216,2.4s.564,1.958-.449,1.958c-.922,0-1.406-1.489-.984-2.637A3.826,3.826,0,0,1,3.03,0" transform="translate(10.289 2.914)" fill="none" stroke="#000" stroke-linecap="round" stroke-miterlimit="10" stroke-width="1.2"/>
    <path id="Path" d="M.587,2.187h.425v.425a.587.587,0,1,0,1.174,0V2.187h.425a.587.587,0,1,0,0-1.174H2.187V.587a.587.587,0,1,0-1.174,0v.425H.587a.587.587,0,0,0,0,1.174Z" transform="translate(16.529 3.328)"/>
    <path id="Path-2" data-name="Path" d="M.587,2.187h.425v.425a.587.587,0,1,0,1.174,0V2.187h.425a.587.587,0,1,0,0-1.174H2.187V.587a.587.587,0,1,0-1.174,0v.425H.587a.587.587,0,0,0,0,1.174Z" transform="translate(1.793 3.328)"/>
    <path id="Path_43" data-name="Path 43" d="M1.322,8.146S0,7.539,0,6.364,1.564,4.408,1.889,3.071,0,0,0,0" transform="translate(6.88 0.187)" fill="none" stroke="#000" stroke-linecap="round" stroke-miterlimit="10" stroke-width="1.2"/>
    <path id="Path_44" data-name="Path 44" d="M0,2.2S1.462,0,2.545,0s1.784,1.1,2.8,1.1A2.187,2.187,0,0,0,6.993,0" transform="translate(12.251 9.849)" fill="none" stroke="#000" stroke-linecap="round" stroke-miterlimit="10" stroke-width="1.2"/>
  </g>
</svg>
