<svg xmlns="http://www.w3.org/2000/svg" width="17.278" height="17.2" viewBox="0 0 17.278 17.2">
  <g id="USD" transform="translate(-20.181 -483.295)">
    <path id="Shape" d="M2.279,10.789v-.653A2.766,2.766,0,0,1,.071,8.881.625.625,0,0,1,.34,8.037a.631.631,0,0,1,.849.267,1.532,1.532,0,0,0,1.09.571V5.925l-.043-.013A2.8,2.8,0,0,1,.019,3.658,2.371,2.371,0,0,1,1.342,1.34a2.717,2.717,0,0,1,.937-.3V.626a.63.63,0,0,1,1.26,0v.451a5.048,5.048,0,0,1,1.67.622.624.624,0,0,1,.212.86.631.631,0,0,1-.864.212,3.72,3.72,0,0,0-1.02-.412v.886a.63.63,0,0,1-1.259,0V2.314a1.334,1.334,0,0,0-.329.124,1.132,1.132,0,0,0-.679,1.084c.057.518.55.963,1.319,1.188.134.04.271.076.408.114a6.1,6.1,0,0,1,1.807.707A2.289,2.289,0,0,1,5.79,7.817,2.715,2.715,0,0,1,3.919,10a3.409,3.409,0,0,1-.381.094v.7a.63.63,0,0,1-1.259,0Z" transform="translate(26.111 486.132)"/>
    <ellipse id="Oval" cx="8.039" cy="8" rx="8.039" ry="8" transform="translate(20.781 483.895)" fill="none" stroke="#000" stroke-miterlimit="10" stroke-width="1.2"/>
  </g>
</svg>
