<svg xmlns="http://www.w3.org/2000/svg" width="18.28" height="21.3" viewBox="0 0 18.28 21.3">
  <g id="Group_9" data-name="Group 9" transform="translate(0.482 0.516)">
    <path id="Path_51" data-name="Path 51" d="M1.45,5.061v-.7A4.934,4.934,0,0,0,.912,2.119h0L.75,1.955A1,1,0,0,1,.873.447L1.45.024a2.782,2.782,0,0,1,2.1.789A3.362,3.362,0,0,1,5.541.024L6.227.49a1,1,0,0,1,.186,1.492l-.182.2h0a4.854,4.854,0,0,0-.47,2.084v.791s-1.478.116-2.217.116S1.45,5.061,1.45,5.061Z" transform="translate(5.13 1.9)" fill="none" stroke="#000" stroke-miterlimit="10" stroke-width="1.2"/>
    <path id="Path_52" data-name="Path 52" d="M6.4,0A11.078,11.078,0,0,0,1.98,3.456,17.711,17.711,0,0,0,0,9.357s2.952,1.762,8.5,1.762S17,9.357,17,9.357A14.245,14.245,0,0,0,15.333,3.94,13.39,13.39,0,0,0,10.795,0" transform="translate(0.169 6.882)" fill="none" stroke="#000" stroke-miterlimit="10" stroke-width="1.2"/>
    <path id="Path_53" data-name="Path 53" d="M0,10.466A43.382,43.382,0,0,1,1.085,4.38,22.668,22.668,0,0,1,3.54,0" transform="translate(3.594 7.077)" fill="none" stroke="#000" stroke-miterlimit="10" stroke-width="1.2"/>
    <path id="Path_54" data-name="Path 54" d="M0,0A15.527,15.527,0,0,1,2.594,4.038,40.724,40.724,0,0,1,3.75,10.466" transform="translate(10.112 7.077)" fill="none" stroke="#000" stroke-miterlimit="10" stroke-width="1.2"/>
    <path id="Path_55" data-name="Path 55" d="M0,.164V2.029a18.478,18.478,0,0,0,7.553,1.6,23.6,23.6,0,0,0,8.157-1.6V0" transform="translate(1.005 16.556)" fill="none" stroke="#000" stroke-miterlimit="10" stroke-width="1.2"/>
    <path id="Path_56" data-name="Path 56" d="M.114,2.961S-.316.616.879.168A3.327,3.327,0,0,1,3.456.616,2.876,2.876,0,0,1,5.977.168c1.293.491.74,2.793.74,2.793" transform="translate(5.251 0.089)" fill="none" stroke="#000" stroke-miterlimit="10" stroke-width="1.2"/>
  </g>
</svg>
