<svg xmlns="http://www.w3.org/2000/svg" width="18.338" height="18.15" viewBox="0 0 18.338 18.15">
  <g id="Group_5" data-name="Group 5" transform="translate(0.419 0.408)">
    <g id="Group_4" data-name="Group 4" transform="translate(0 0.795)">
      <path id="Path_27" data-name="Path 27" d="M0,15.921V3.091A3.091,3.091,0,0,1,3.091,0h1.93" transform="translate(1.401 0.166)" fill="none" stroke="#000" stroke-miterlimit="10" stroke-width="1.2"/>
      <path id="Path_28" data-name="Path 28" d="M0,.4H7.256" transform="translate(0.259 15.85)" fill="none" stroke="#000" stroke-linecap="round" stroke-miterlimit="10" stroke-width="1.2"/>
      <path id="Path_29" data-name="Path 29" d="M3.463,7.678,1.008,1.223a2.318,2.318,0,0,0-.7-.97L0,0" transform="translate(2.391 8.495)" fill="none" stroke="#000" stroke-linecap="round" stroke-miterlimit="10" stroke-width="1.2"/>
      <path id="Path_30" data-name="Path 30" d="M0,5.724A9.769,9.769,0,0,0,4.961,4.486C7.01,3.145,8.179,0,8.179,0" transform="translate(0.202 2.868)" fill="none" stroke="#000" stroke-linecap="round" stroke-miterlimit="10" stroke-width="1.2"/>
      <path id="Path" d="M0,3.426A5.027,5.027,0,0,0,2.576,1.446,7.907,7.907,0,0,0,3.446,0" transform="translate(1.401 3.766)" fill="none" stroke="#000" stroke-linecap="round" stroke-miterlimit="10" stroke-width="1.2"/>
    </g>
    <g id="Group_4-2" data-name="Group 4" transform="translate(17.5 0.795)">
      <path id="Path_27-2" data-name="Path 27" d="M0,15.921V3.091A3.091,3.091,0,0,0-3.091,0h-1.93" transform="translate(-1.401 0.166)" fill="none" stroke="#000" stroke-miterlimit="10" stroke-width="1.2"/>
      <path id="Path_28-2" data-name="Path 28" d="M0,.4H-7.256" transform="translate(-0.259 15.85)" fill="none" stroke="#000" stroke-linecap="round" stroke-miterlimit="10" stroke-width="1.2"/>
      <path id="Path_29-2" data-name="Path 29" d="M-3.463,7.678l2.455-6.455a2.318,2.318,0,0,1,.7-.97L0,0" transform="translate(-2.391 8.495)" fill="none" stroke="#000" stroke-linecap="round" stroke-miterlimit="10" stroke-width="1.2"/>
      <path id="Path_30-2" data-name="Path 30" d="M0,5.724A9.769,9.769,0,0,1-4.961,4.486C-7.01,3.145-8.179,0-8.179,0" transform="translate(-0.202 2.868)" fill="none" stroke="#000" stroke-linecap="round" stroke-miterlimit="10" stroke-width="1.2"/>
      <path id="Path-2" data-name="Path" d="M0,3.336A5.027,5.027,0,0,1-2.576,1.357,7.989,7.989,0,0,1-3.4,0" transform="translate(-1.401 3.855)" fill="none" stroke="#000" stroke-linecap="round" stroke-miterlimit="10" stroke-width="1.2"/>
    </g>
    <path id="Path_40" data-name="Path 40" d="M2.337,3.7.929,2.552A1.545,1.545,0,0,1,.5.719l.27-.6A1.725,1.725,0,0,1,2.374.6,1.319,1.319,0,0,1,3.981.121l.261.74a1.545,1.545,0,0,1-.5,1.724Z" transform="translate(6.413 0.204)" fill="none" stroke="#000" stroke-miterlimit="10" stroke-width="1.2"/>
  </g>
</svg>
