<svg id="Group_12_Copy" data-name="Group 12 Copy" xmlns="http://www.w3.org/2000/svg" width="35.215" height="20.895" viewBox="0 0 35.215 20.895">
  <rect id="Rectangle" width="35.215" height="20.895" rx="2.322" transform="translate(0 0)" fill="#203370"/>
  <g id="Group_2" data-name="Group 2" transform="translate(0.95 0)">
    <rect id="Rectangle-2" data-name="Rectangle" width="28.895" height="18.324" transform="translate(1.685 1.413)" fill="#ed1f27"/>
    <path id="Rectangle-3" data-name="Rectangle" d="M8.088,0h8.983V18.324H8.088S0,15.447,0,9.312,8.088,0,8.088,0Z" transform="translate(13.51 1.413)" fill="#f9a61c"/>
    <path id="Rectangle-4" data-name="Rectangle" d="M5.6,6.217C5.584,9.657,2.789,12.3,2.789,12.3s-.134-.12-.2-.181A7.788,7.788,0,0,1,0,6.217,8.117,8.117,0,0,1,2.7.118,1.535,1.535,0,0,1,2.851,0S5.618,2.777,5.6,6.217Z" transform="translate(13.51 4.508)" fill="#f1621c"/>
    <g id="mastercard_1_" data-name="mastercard (1)" transform="translate(0.051 0.428)">
      <path id="Shape" d="M0,2.626c0-.988.806-1.315,1.573-1.315.122,0,.382.022.382.022a.569.569,0,0,0,.03-.224C1.985.841,1.742.8,1.412.8A2.8,2.8,0,0,0,.445.96L.574.2A3.064,3.064,0,0,1,1.648,0a1.05,1.05,0,0,1,1.22,1.071L2.519,3.515H1.738l.029-.339a1.152,1.152,0,0,1-.91.407A.841.841,0,0,1,0,2.626Z" transform="translate(7.005 8.853)" fill="#fff"/>
      <path id="Path" d="M1.769.813c.125,0,.606.04.606.04L2.487.07A4.139,4.139,0,0,0,1.668,0C1.011,0,.346.262.346,1.159c0,1.016,1.111.913,1.111,1.342,0,.285-.31.309-.55.309a2.839,2.839,0,0,1-.788-.136L0,3.45a2.866,2.866,0,0,0,1,.108c.2,0,1.342.052,1.342-1.127,0-1.1-1.057-.885-1.057-1.328C1.28.882,1.452.813,1.769.813Z" transform="translate(9.707 8.86)" fill="#fff"/>
      <path id="Path-2" data-name="Path" d="M1.18,1.352h.47L1.763.517H1.321L1.411,0H.524C.5.019,0,2.918,0,3.27a.658.658,0,0,0,.707.752,2.287,2.287,0,0,0,.665-.117l.111-.754c-.061,0-.15.026-.229.026-.309,0-.343-.165-.323-.286Z" transform="translate(12.162 8.42)" fill="#fff"/>
      <path id="Path-3" data-name="Path" d="M2.924,0,2.05,2.593,2,0H.709L0,4.225H.856L1.4,1.04l.079,3.185h.611L3.227,1.04,2.721,4.225H3.63L4.329,0Z" transform="translate(2.994 8.147)" fill="#fff"/>
      <path id="Shape-2" data-name="Shape" d="M0,2.626c0-.988.806-1.315,1.572-1.315.122,0,.382.022.382.022a.554.554,0,0,0,.031-.224C1.985.841,1.742.8,1.412.8A2.8,2.8,0,0,0,.445.96L.574.2A3.068,3.068,0,0,1,1.65,0,1.047,1.047,0,0,1,2.867,1.071L2.518,3.515h-.78l.029-.339a1.156,1.156,0,0,1-.91.407A.841.841,0,0,1,0,2.626Z" transform="translate(21.388 8.853)" fill="#fff"/>
      <path id="Path-4" data-name="Path" d="M1.993,0C1.6,0,1.3.542,1.3.542l.079-.5H.554L0,3.483H.911c.259-1.47.306-2.661.922-2.443A3.412,3.412,0,0,1,2.164.011,1.013,1.013,0,0,0,1.993,0Z" transform="translate(24.059 8.895)" fill="#fff"/>
      <path id="Shape-3" data-name="Shape" d="M0,2.834C0,1.708.678.728,1.49.727a1.17,1.17,0,0,1,.857.462L2.539,0l.89,0L2.75,4.219H1.887L1.926,3.9a1.108,1.108,0,0,1-.826.371C.362,4.273,0,3.561,0,2.834Z" transform="translate(25.802 8.15)" fill="#fff"/>
      <path id="Shape-4" data-name="Shape" d="M.836,19.419A.836.836,0,0,1,0,18.583V.836A.836.836,0,0,1,.836,0h30.8a.836.836,0,0,1,.836.836V18.583a.836.836,0,0,1-.836.836Z" transform="translate(0 0.54)" fill="#203370"/>
      <path id="Shape-5" data-name="Shape" d="M0,2.048C0,.962.661,0,1.553,0A1.19,1.19,0,0,1,2.818,1.3a6.359,6.359,0,0,1-.117.809H.9s-.167.71.786.71A2.756,2.756,0,0,0,2.626,2.6l-.157.856a2.252,2.252,0,0,1-.937.146A1.392,1.392,0,0,1,0,2.048Z" transform="translate(13.815 8.838)" fill="#fff"/>
      <path id="Path-5" data-name="Path" d="M2.061.9a1.58,1.58,0,0,1,.814.254L3.02.217A3.182,3.182,0,0,0,2.02,0C1,0,0,.889,0,2.558,0,3.665.538,4.4,1.6,4.4a4.112,4.112,0,0,0,.776-.121l.159-.968a2.131,2.131,0,0,1-.734.218.879.879,0,0,1-.883-1C.915,1.479,1.457.9,2.061.9Z" transform="translate(18.617 8.052)" fill="#fff"/>
      <path id="Path-6" data-name="Path" d="M1.992,0C1.594,0,1.3.542,1.3.542l.08-.5H.554L0,3.483H.911c.258-1.469.306-2.661.922-2.443A3.412,3.412,0,0,1,2.163.01.9.9,0,0,0,1.992,0Z" transform="translate(16.609 8.896)" fill="#fff"/>
    </g>
  </g>
</svg>
