<svg xmlns="http://www.w3.org/2000/svg" xmlns:xlink="http://www.w3.org/1999/xlink" width="66.982" height="31.001" viewBox="0 0 66.982 31.001">
  <defs>
    <clipPath id="clip-path">
      <path id="Clip_4" data-name="Clip 4" d="M0,0H45.086V20.155H0Z" transform="translate(0.051 0.069)" fill="none"/>
    </clipPath>
  </defs>
  <g id="FedEx_Copy" data-name="FedEx Copy" transform="translate(-0.051 -0.069)">
    <path id="Fill_1" data-name="Fill 1" d="M2.155,4.627A2.214,2.214,0,0,1,0,2.314,2.215,2.215,0,0,1,2.155,0,2.214,2.214,0,0,1,4.308,2.314,2.214,2.214,0,0,1,2.155,4.627Zm0-4.254A1.789,1.789,0,0,0,.412,2.314,1.787,1.787,0,0,0,2.155,4.253,1.787,1.787,0,0,0,3.9,2.314,1.789,1.789,0,0,0,2.155.373ZM1.7,3.683H1.319V.883h.939c.54,0,.8.252.8.771a.575.575,0,0,1-.447.6v.014c.227.04.3.272.344.634,0,.035.01.073.015.114a2.245,2.245,0,0,0,.144.669l-.445,0a2.125,2.125,0,0,1-.1-.518,3.242,3.242,0,0,0-.07-.428.384.384,0,0,0-.435-.323H1.7V3.682Zm0-2.427v.795h.468c.425,0,.471-.278.471-.4,0-.268-.154-.4-.471-.4Z" transform="translate(62.724 15.294)" fill="#e5702a"/>
    <path id="Fill_2" data-name="Fill 2" d="M10.123,12.346,7.639,9.323,5.178,12.346H0L5.062,6.174,0,0H5.341L7.848,3l2.414-3h5.155L10.379,6.148l5.107,6.2H10.123" transform="translate(45.137 7.172)" fill="#e5702a"/>
    <g id="Group_6" data-name="Group 6">
      <path id="Clip_4-2" data-name="Clip 4" d="M0,0H45.086V20.155H0Z" transform="translate(0.051 0.069)" fill="none"/>
      <g id="Group_6-2" data-name="Group 6" clip-path="url(#clip-path)">
        <path id="Fill_3" data-name="Fill 3" d="M0,19.449V0H9.946V4.335H4.213V7.1H9.946v4.171H4.213V15.1H9.946v4.346H0" transform="translate(35.19 0.069)" fill="#e5702a"/>
        <path id="Fill_5" data-name="Fill 5" d="M27.558,20.156a5.337,5.337,0,0,1-3.978-1.792,7.406,7.406,0,0,1-1.868-4.21H13.406a2.78,2.78,0,0,0,.707,1.861,2.249,2.249,0,0,0,1.675.785,2,2,0,0,0,2.074-1.109H21.94A6.144,6.144,0,0,1,15.787,20.1a6.326,6.326,0,0,1-4.616-1.93A7.107,7.107,0,0,1,9.287,13.2,8.407,8.407,0,0,1,9.5,11.273H4.76v8.176H0V0H10.588V4.335H4.76V7.1H10.1V9.652a6.163,6.163,0,0,1,5.687-3.308,6.2,6.2,0,0,1,3.961,1.279,6.617,6.617,0,0,1,2.2,3.5C22.725,8.253,24.91,6.4,27.512,6.4A4.081,4.081,0,0,1,30.948,7.96h.045V0h4.2V19.449h-4.2V18.19h-.045A4.01,4.01,0,0,1,27.558,20.156Zm.889-10.289c-1.723,0-2.507,1.775-2.507,3.424,0,1.572.938,3.2,2.507,3.2,1.79,0,2.425-1.723,2.425-3.2C30.872,11.635,30.235,9.867,28.447,9.867Zm-12.66-.578a2.351,2.351,0,0,0-2.248,2.043h4.521A2.241,2.241,0,0,0,15.787,9.289Z" transform="translate(0 0.069)" fill="#3b2c78"/>
      </g>
    </g>
    <path id="Fill_7" data-name="Fill 7" d="M0,6.97V0H3.548V.52H.585V3.09H3.423v.52H.585V6.449h3.1V6.97H0" transform="translate(35.191 22.272)" fill="#3b2c78"/>
    <path id="Fill_8" data-name="Fill 8" d="M0,4.871l1.73-2.5L.088,0H.754l1.34,1.935L3.406,0h.665L2.4,2.368l1.739,2.5H3.468L2.031,2.8.665,4.871H0" transform="translate(39.295 24.372)" fill="#3b2c78"/>
    <path id="Fill_9" data-name="Fill 9" d="M.568,6.813H.027V1.569C.027,1.091.027.6,0,.115H.533L.551.847A1.53,1.53,0,0,1,2,0C3.456,0,3.974,1.374,3.974,2.55S3.456,5.1,2,5.1A1.545,1.545,0,0,1,.568,4.283V6.812ZM1.934.49C.8.49.568,1.61.568,2.55S.8,4.609,1.934,4.609C3.013,4.609,3.4,3.545,3.4,2.55S3.013.49,1.934.49Z" transform="translate(43.995 24.256)" fill="#3b2c78"/>
    <path id="Fill_10" data-name="Fill 10" d="M1.774.567c-.9,0-1.207.82-1.207,1.665V4.986H.026V1.548C.026,1.077.018.6,0,.115H.533l.035.7A1.343,1.343,0,0,1,1.872,0,2.286,2.286,0,0,1,2.12.018V.606A2.135,2.135,0,0,0,1.774.567" transform="translate(48.976 24.256)" fill="#3b2c78"/>
    <path id="Fill_11" data-name="Fill 11" d="M1.969,5.1C.736,5.1,0,4.18,0,2.637,0,1.362.536,0,2.04,0,3.614,0,3.849,1.664,3.849,2.656H.578a2.466,2.466,0,0,0,.4,1.457A1.28,1.28,0,0,0,3.29,3.56h.516A1.742,1.742,0,0,1,1.969,5.1ZM2.005.441C1.225.441.7,1.1.594,2.213H3.272A2.076,2.076,0,0,0,2.786.754,1.064,1.064,0,0,0,2.005.441Z" transform="translate(51.181 24.256)" fill="#3b2c78"/>
    <path id="Fill_12" data-name="Fill 12" d="M1.613,5.1A1.441,1.441,0,0,1,0,3.56H.541a1,1,0,0,0,1.1,1.1.962.962,0,0,0,1.09-.971c0-.587-.558-.742-1.143-.925C.878,2.54.106,2.3.106,1.356.106.308.913,0,1.668,0c.868,0,1.516.365,1.543,1.375H2.669a.9.9,0,0,0-.984-.9c-.452,0-1,.191-1,.827,0,.578.55.741,1.134.915.711.211,1.49.442,1.49,1.385,0,1.1-.78,1.5-1.694,1.5" transform="translate(55.529 24.256)" fill="#3b2c78"/>
    <path id="Fill_13" data-name="Fill 13" d="M1.614,5.1A1.441,1.441,0,0,1,0,3.56H.541a1,1,0,0,0,1.1,1.1.962.962,0,0,0,1.09-.971c0-.587-.559-.742-1.144-.925C.878,2.54.107,2.3.107,1.356.107.308.914,0,1.668,0c.868,0,1.516.365,1.543,1.375H2.669a.9.9,0,0,0-.984-.9c-.452,0-1,.191-1,.827,0,.578.55.741,1.135.915.71.211,1.49.442,1.49,1.385,0,1.1-.781,1.5-1.694,1.5" transform="translate(59.28 24.256)" fill="#3b2c78"/>
  </g>
</svg>
