<svg xmlns="http://www.w3.org/2000/svg" xmlns:xlink="http://www.w3.org/1999/xlink" width="59.795" height="25.154" viewBox="0 0 59.795 25.154">
  <defs>
    <clipPath id="clip-path">
      <path id="Clip_18" data-name="Clip 18" d="M0,0H53.018V21.784H0Z" transform="translate(0.011 0.146)" fill="none"/>
    </clipPath>
  </defs>
  <g id="norton_secure_seal_copy" data-name="norton_secure_seal copy" transform="translate(-0.011 -0.006)">
    <path id="Fill_1" data-name="Fill 1" d="M9.3,0a9.3,9.3,0,0,0,0,18.605H48.076A9.3,9.3,0,0,0,48.076,0H9.3" transform="translate(1.636 4.965)" fill="#fffffe"/>
    <path id="Fill_2" data-name="Fill 2" d="M48.868,20.19H10.094a10.095,10.095,0,0,1,0-20.19H48.868a10.095,10.095,0,0,1,0,20.19ZM10.094.792a9.3,9.3,0,0,0,0,18.606H48.868a9.3,9.3,0,0,0,0-18.606Z" transform="translate(0.844 4.173)" fill="#bfc0bf"/>
    <path id="Fill_3" data-name="Fill 3" d="M2.726,5.451A2.726,2.726,0,1,1,5.451,2.727,2.728,2.728,0,0,1,2.726,5.451Zm0-4.124a1.4,1.4,0,1,0,1.4,1.4A1.4,1.4,0,0,0,2.726,1.328Z" transform="translate(42.336 8.619)" fill="#1a1919"/>
    <path id="Fill_4" data-name="Fill 4" d="M2.725,5.451A2.726,2.726,0,1,1,5.452,2.727,2.728,2.728,0,0,1,2.725,5.451Zm0-4.124a1.4,1.4,0,1,0,1.4,1.4A1.4,1.4,0,0,0,2.725,1.328Z" transform="translate(29.834 8.619)" fill="#1a1919"/>
    <path id="Fill_5" data-name="Fill 5" d="M6.5,5.565a2.716,2.716,0,0,1-.536.1C5.5,5.665,5.4,5.5,5.4,5.059V2.54H6.511V1.488H5.4V0H4.142L3.879,1.488H2.934a1.8,1.8,0,0,0-1.6,1.122L.9,1.488H0V6.718H1.537V4.443a1.7,1.7,0,0,1,1.481-1.9h.841v2.6A1.459,1.459,0,0,0,5.508,6.82a3.683,3.683,0,0,0,1.174-.192L6.5,5.565" transform="translate(35.66 7.254)" fill="#1a1919"/>
    <path id="Fill_6" data-name="Fill 6" d="M1.494,1.655V5.231H0V0H.907l.3.8" transform="translate(48.155 8.742)" fill="#1a1919"/>
    <path id="Fill_7" data-name="Fill 7" d="M0,.926A2.419,2.419,0,0,1,1.8,0,1.747,1.747,0,0,1,3.561,1.913v3.44H2.022v-3.4a.711.711,0,0,0-.778-.692,1.27,1.27,0,0,0-.951.51" transform="translate(49.359 8.62)" fill="#1a1919"/>
    <path id="Fill_8" data-name="Fill 8" d="M0,0H1.713L4.064,4.479V0H5.483V7.125H3.931L1.419,2.2V7.125H0V0" transform="translate(23.839 6.848)" fill="#1a1919"/>
    <path id="Fill_9" data-name="Fill 9" d="M1.031,0V.255H.658V1.51H.366V.255H0V0H1.031" transform="translate(56.428 4.173)" fill="#9e9f9e"/>
    <path id="Fill_10" data-name="Fill 10" d="M0,1.51V0H.394L.656.989.922,0h.4V1.51H1.08V.329H1.073L.768,1.51H.555L.247.329H.24V1.51H0" transform="translate(57.668 4.173)" fill="#9e9f9e"/>
    <path id="Fill_11" data-name="Fill 11" d="M0,4.148.355,3.6a2.117,2.117,0,0,0,1.251.412c.514,0,.831-.233.831-.637,0-.465-.4-.588-1.059-.817C.787,2.345.207,2.047.207,1.211.207.427.825,0,1.657,0A2.46,2.46,0,0,1,2.945.3L2.661.89A2.121,2.121,0,0,0,1.67.65c-.463,0-.741.175-.741.542,0,.432.322.541.928.74.632.2,1.327.5,1.327,1.424,0,.784-.56,1.3-1.566,1.3A2.624,2.624,0,0,1,0,4.148" transform="translate(23.411 16.139)" fill="#9e9f9e"/>
    <path id="Fill_12" data-name="Fill 12" d="M0,0H2.693V.626H.766V1.862H2.288v.612H.766V3.9H2.81v.625H0V0" transform="translate(27.943 16.21)" fill="#9e9f9e"/>
    <path id="Fill_13" data-name="Fill 13" d="M0,2.338C0,1.016.633,0,1.9,0A1.658,1.658,0,0,1,3.222.545l-.447.517A1.128,1.128,0,0,0,1.908.668C1.166.668.824,1.275.824,2.4c0,1.052.361,1.585,1.09,1.585A1.265,1.265,0,0,0,2.853,3.5l.451.5a1.7,1.7,0,0,1-1.4.651C.606,4.657,0,3.664,0,2.338" transform="translate(31.849 16.14)" fill="#9e9f9e"/>
    <path id="Fill_14" data-name="Fill 14" d="M0,2.795V0H.772V2.919c0,.622.154,1.03.811,1.03s.812-.407.812-1.03V0h.78V2.795c0,1.122-.432,1.792-1.6,1.792C.43,4.587,0,3.916,0,2.795" transform="translate(36.401 16.21)" fill="#9e9f9e"/>
    <path id="Fill_15" data-name="Fill 15" d="M.767,4.529H0V0H1.477C2.557,0,3.1.444,3.1,1.32A1.187,1.187,0,0,1,2.247,2.5l.941,2.028H2.351L1.481,2.607H.767V4.528Zm0-3.9V2.016h.682c.609,0,.869-.212.869-.709,0-.465-.262-.682-.824-.682Z" transform="translate(41.113 16.21)" fill="#9e9f9e"/>
    <path id="Fill_16" data-name="Fill 16" d="M0,0H2.692V.626H.766V1.862H2.285v.612H.766V3.9H2.808v.625H0V0" transform="translate(45.612 16.21)" fill="#9e9f9e"/>
    <g id="Group_20" data-name="Group 20" transform="translate(0 3.23)">
      <path id="Clip_18-2" data-name="Clip 18" d="M0,0H53.018V21.784H0Z" transform="translate(0.011 0.146)" fill="none"/>
      <g id="Group_20-2" data-name="Group 20" clip-path="url(#clip-path)">
        <path id="Fill_17" data-name="Fill 17" d="M1.169,4.528H0V0H1.13A1.965,1.965,0,0,1,3.316,2.247C3.316,3.739,2.573,4.528,1.169,4.528ZM.77.625V3.9h.316C2.119,3.9,2.5,3.454,2.5,2.247,2.5,1.095,2.121.625,1.181.625Z" transform="translate(49.714 12.98)" fill="#9e9f9e"/>
        <path id="Fill_19" data-name="Fill 19" d="M10.893,21.784A10.892,10.892,0,1,1,21.784,10.892,10.9,10.9,0,0,1,10.893,21.784Zm0-18.338a7.445,7.445,0,1,0,5.265,2.181A7.4,7.4,0,0,0,10.893,3.445Z" transform="translate(0 0.146)" fill="#f6bc25"/>
      </g>
    </g>
    <path id="Fill_21" data-name="Fill 21" d="M0,.849H.849V0H0Z" transform="translate(22.757 1.699)" fill="#f6bc25"/>
    <path id="Fill_22" data-name="Fill 22" d="M0,.851H.849V0H0Z" transform="translate(22.757 0.006)" fill="#f6bc25"/>
    <path id="Fill_23" data-name="Fill 23" d="M0,.829H.793V0H0Z" transform="translate(20.368 2.542)" fill="#f6bc25"/>
    <path id="Fill_24" data-name="Fill 24" d="M0,.793H.8V0H0Z" transform="translate(18.795 4.17)" fill="#1a1919"/>
    <path id="Fill_25" data-name="Fill 25" d="M0,.8H.889V0H0Z" transform="translate(21.16 3.371)" fill="#1a1919"/>
    <path id="Fill_26" data-name="Fill 26" d="M0,.76H.8V0H0Z" transform="translate(17.999 3.41)" fill="#1a1919"/>
    <path id="Fill_27" data-name="Fill 27" d="M0,.793H.793V0H0Z" transform="translate(20.368 4.17)" fill="#1a1919"/>
    <path id="Fill_28" data-name="Fill 28" d="M0,.842H.84V0H0Z" transform="translate(21.917 0.857)" fill="#1a1919"/>
    <path id="Fill_29" data-name="Fill 29" d="M0,.843H1.549V0H0Z" transform="translate(20.368 1.699)" fill="#1a1919"/>
    <path id="Fill_30" data-name="Fill 30" d="M0,1.628H.772V0H0Z" transform="translate(19.595 2.542)" fill="#1a1919"/>
    <path id="Fill_31" data-name="Fill 31" d="M13.454,0V.8h-.8V0H11.327V.576h-.711v.71h.794v.792h-.794V1.286H9.772V2.528h-.8V3.32h-.53v.8H7.862A44.636,44.636,0,0,0,5.072,9.356C3.285,6.87,1.9,5.884.805,5.528.216,5.35-.494,5.992.485,7a18.237,18.237,0,0,1,3.639,6.152c.362.861,1.982,1,2.308.118A26.522,26.522,0,0,1,9.315,7.627V6.741h.634v-.8h.667V5.016h.8V4.123h-.806V3.311h.806v.811H12.2l0-.8h.632V2.35h.711V1.683h.684V0h-.772" transform="translate(6.141 4.963)" fill="#1a1919"/>
  </g>
</svg>
