<svg xmlns="http://www.w3.org/2000/svg" width="26.395" height="32.434" viewBox="0 0 26.395 32.434">
  <g id="ups_copy" data-name="ups copy" transform="translate(1 -0.085)">
    <path id="Path" d="M11.939,30.752c.247-.134,6.681-3.156,8.723-4.968A10.082,10.082,0,0,0,23.879,18V2.89l-.186-.067C18.559-.2,12.187,0,11.877,0,11.63,0,5.258-.2.124,2.823L0,2.89V18.063a10.082,10.082,0,0,0,3.217,7.788c2.041,1.813,8.475,4.834,8.723,4.9" transform="translate(0.247 0.558)" fill="#341b14"/>
    <path id="Shape" d="M3.279,26.526A10.292,10.292,0,0,1,0,18.6V2.893C5.382-.263,12.187.005,12.187.005s6.8-.268,12.187,2.887V18.536A10.29,10.29,0,0,1,21.1,26.458c-2.1,1.88-8.908,5.1-8.908,5.1S5.382,28.338,3.279,26.526Z" transform="translate(0 0.085)"/>
    <path id="Shape-2" data-name="Shape" d="M18.311,21.893l-.372-.6h-.061v.6h-.247V20.35H18a.457.457,0,0,1,.5.47.418.418,0,0,1-.31.4c.062.068.433.671.433.671Zm-10.7-5.841V.879A5.023,5.023,0,0,1,10.517.074c2.536,0,3.959,2.081,3.959,5.505,0,3.357-1.361,5.707-3.774,5.707a2.965,2.965,0,0,1-.99-.134v4.9Zm7.424-5.505V8.4a3.214,3.214,0,0,0,2.041.94,1.183,1.183,0,0,0,1.3-1.275c-.061-.739-.433-1.141-1.361-1.746-1.732-1.074-2.1-2.013-2.165-3.289A2.99,2.99,0,0,1,17.754.006a3.239,3.239,0,0,1,2.351.739V2.759a2.828,2.828,0,0,0-1.918-.941A1.154,1.154,0,0,0,16.95,2.961c0,.806.619,1.141,1.423,1.679,1.795,1.141,2.165,2.215,2.1,3.558a2.98,2.98,0,0,1-3.092,3.089A4.676,4.676,0,0,1,15.033,10.547ZM0,7.526V.208H2.165V7.66c0,.6.123,1.612,1.113,1.612A1.477,1.477,0,0,0,4.269,9V.208H6.433V10.345a5.314,5.314,0,0,1-3.217.941C1.113,11.286,0,10.01,0,7.526Z" transform="translate(2.041 10.155)"/>
    <path id="Shape-3" data-name="Shape" d="M0,1.275A1.227,1.227,0,0,1,1.175,0,1.272,1.272,0,0,1,2.351,1.275,1.227,1.227,0,0,1,1.175,2.552,1.229,1.229,0,0,1,0,1.275Z" transform="translate(18.93 29.968)" fill="#ffb406"/>
    <path id="Icon_awesome-ups" data-name="Icon awesome-ups" d="M7.256,21.392c-.366.254-2.292.925-2.292-1.342V12.7h-2.3v7.247c0,5.291,5.639,3.609,6.884,2.755v-10H7.256ZM.281,5.274v15.6c0,7.325,5.266,9.55,13.2,13,7.9-3.454,13.2-5.665,13.2-13V5.274C18.5.923,6.863,1.771.281,5.274Zm25.179,15.6c0,6.117-3.741,8.024-11.981,11.676C5.217,28.895,1.491,26.995,1.491,20.878V11.949C8.684,5.324,17.775,4.886,25.46,5.606ZM10.723,13.291V28.323h2.3V23.47c1.716.516,5.041-.184,5.041-5.545C18.063,11.045,12.389,12.209,10.723,13.291Zm2.3,8.286V14.492c.591-.3,2.7-.9,2.7,3.482C15.722,22.771,13.162,21.634,13.022,21.577Zm5.562-6.1c.007,3.341,3.628,3,3.67,4.973.042,1.66-2.138,1.625-3.572.346v2.126c2.545,1.519,5.759.572,5.85-2.366.12-3.638-3.8-3.292-3.755-5.171.042-1.434,2.152-1.448,3.41-.155V13.221c-2-1.554-5.618-.65-5.6,2.253Z" transform="translate(-1.281 -2.235)" fill="#ffb406"/>
  </g>
</svg>
