<svg xmlns="http://www.w3.org/2000/svg" width="35.215" height="20.895" viewBox="0 0 35.215 20.895">
  <g id="Group_10_Copy" data-name="Group 10 Copy" transform="translate(-0.408)">
    <rect id="Rectangle_Copy_2" data-name="Rectangle Copy 2" width="35.215" height="20.895" rx="2.322" transform="translate(0.408 0)" fill="#1b2b93"/>
    <g id="visa-pay-logo" transform="translate(3.648 5.895)">
      <path id="Path" d="M1.432,0,0,8.406H2.291L3.724,0Z" transform="translate(9.853 0.471)" fill="#fff"/>
      <path id="Path-2" data-name="Path" d="M5.656,0,3.413,5.734l-.239-.866A8.994,8.994,0,0,0,0,1.384l2.052,7.01,2.424,0L8.083,0Z" transform="translate(2.276 0.478)" fill="#fff"/>
      <path id="Path-3" data-name="Path" d="M4.579.683a.922.922,0,0,0-1-.683H.029L0,.167A7.294,7.294,0,0,1,5.352,4.4Z" transform="translate(0 0.399)" fill="#fff"/>
      <path id="Path-4" data-name="Path" d="M4.643,1.756a4.229,4.229,0,0,1,1.715.322l.207.1L6.874.353A5.913,5.913,0,0,0,4.822,0C2.558,0,.963,1.14.95,2.774.936,3.981,2.087,4.655,2.957,5.058c.893.412,1.192.675,1.188,1.043-.007.563-.712.821-1.37.821a4.809,4.809,0,0,1-2.157-.44l-.3-.134L0,8.228a7.255,7.255,0,0,0,2.552.448c2.408,0,3.973-1.127,3.99-2.872.01-.955-.6-1.684-1.925-2.282-.8-.39-1.292-.649-1.287-1.043C3.33,2.129,3.746,1.756,4.643,1.756Z" transform="translate(13.577 0.326)" fill="#fff"/>
      <path id="Shape" d="M6.1,8.4s-.212-.966-.279-1.259l-2.934,0C2.8,7.365,2.406,8.4,2.406,8.4H0L3.4.7A1.14,1.14,0,0,1,4.6,0h1.77L8.225,8.4Z" transform="translate(19.959 0.48)" fill="#fff"/>
    </g>
  </g>
</svg>
